<svg width="342" height="509" viewBox="0 0 342 509" fill="none" xmlns="http://www.w3.org/2000/svg">
<rect x="311.5" y="70" width="387" height="31" transform="rotate(90 311.5 70)" fill="#FF956B" stroke="#262C4C" stroke-width="10"/>
<circle cx="295" cy="45" r="35" transform="rotate(90 295 45)" fill="#FF956B" stroke="#262C4C" stroke-width="10"/>
<circle cx="295" cy="462" r="35" transform="rotate(90 295 462)" fill="#FF956B" stroke="#262C4C" stroke-width="10"/>
<rect x="336.5" y="202" width="107" height="77" rx="16" transform="rotate(90 336.5 202)" fill="#FF956B" stroke="#262C4C" stroke-width="10"/>
<path d="M283.5 55.5C272.821 42.5 274.99 26.5 278 23C274 25.9231 260.794 46.5 273.5 62.5C286.206 78.5 303 76.5 314 71C305.5 72 294.179 68.5 283.5 55.5Z" fill="#E36A3A"/>
<path d="M157.5 312C157.5 323.046 148.546 332 137.5 332L93.5 332L93.5 177L137.5 177C148.546 177 157.5 185.954 157.5 197L157.5 312Z" fill="#FF956B" stroke="#262C4C" stroke-width="10"/>
<path d="M136.52 311.737C145.671 310.923 152.574 301.731 152.775 298C152.775 303.766 155.622 316.386 149 323C145.241 326.754 137.323 327 133.51 327L101 327L101 311.737C109.428 312.076 127.369 312.551 136.52 311.737Z" fill="#E36A3A"/>
<path d="M283 472.5C272.321 459.5 274.49 443.5 277.5 440C273.5 442.923 260.294 463.5 273 479.5C285.706 495.5 302.5 493.5 313.5 488C305 489 293.679 485.5 283 472.5Z" fill="#E36A3A"/>
<path d="M95.5 469C95.5 488.33 79.8299 504 60.5 504L15.5 504C9.97713 504 5.49998 499.523 5.49998 494L5.5 15C5.5 9.47715 9.97716 5 15.5 5L60.5 5.00001C79.83 5.00001 95.5 20.67 95.5 40L95.5 469Z" fill="#FF956B" stroke="#262C4C" stroke-width="10"/>
<rect x="258.952" y="229.048" width="50" height="100" transform="rotate(90 258.952 229.048)" fill="#6AC6ED" stroke="#262C4C" stroke-width="10"/>
<rect x="222.265" y="203" width="99.107" height="19.349" rx="9.67449" transform="rotate(76.441 222.265 203)" fill="#262C4C"/>
<rect x="189.265" y="203" width="99.107" height="19.349" rx="9.67449" transform="rotate(76.441 189.265 203)" fill="#262C4C"/>
<path d="M71 467.5C83.8 465.9 90.5 443.833 91 433.5L91 464C91 479 88.1416 483.244 82 490C74 498.8 61.6667 500 57.5 499.5L13.5 499.5C11 499.5 10 495 10 494L10 469C25.5 469 58.2 469.1 71 467.5Z" fill="#E36A3A"/>
<path d="M86.5 136.5L90.5 136.5L90.5 39.5C90.5 35 89.5 27.0001 82.5 19.5001C76.1343 12.6797 67.3333 10.0001 62.5 10.0001L16.5 10.0001C15.6667 10.0001 13.9884 10.0077 12.5 11C11 12 10.5 13.5 10.5 14L10.5 24.5L58 24.5001C59.3333 24.5001 66.5943 23.243 72 30.0001C76 35.0001 76.5 41.0001 76.5 46.0001L76.5 123.5C76.5 131 77 132 79 134C81 136 83 136.5 86.5 136.5Z" fill="#FFC6AF"/>
</svg>
